# xmcd CD database file
#
# Track frame offsets:
#	150
#	18808
#	43878
#	63433
#	79722
#	93487
#	110141
#	133181
#	150307
#	168821
#	179623
#	201203
#	216804
#	239341
#	257173
#	275515
#	290026
#
# Disc length: 4170 seconds
#
# Revision: 0
# Processed by: cddbd v1.4PL0 Copyright (c) Steve Scherf et al.
# Submitted via: CDex 1.51
#
DISCID=f9104811
DTITLE=Various Artist - Top Hits USA RJ23
DYEAR=1900
DGENRE=Jazz
TTITLE0=Steve Cole - Everyday
TTITLE1=A Twist Of Motown - Inner City Blues
TTITLE2=Dave Koz - Honey-Dipped
TTITLE3=Ken Navarro - Bringing Down The House
TTITLE4=Fortune Vinson Cruse - Creek Lane (Philly Edit Short)
TTITLE5=Jazzmasters - Puerto Banus
TTITLE6=Rick Braun - Green Tomatoes
TTITLE7=Eric Marienthal - Uptown
TTITLE8=Nick Colionne - High Flyin'
TTITLE9=Catrin Finch - James
TTITLE10=Jeff Lorber - Under Wraps
TTITLE11=Chris Botti - Indian Summer
TTITLE12=Daryl Hall - She's Gone
TTITLE13=Pamela Williams - Afterglow
TTITLE14=Norma Brown - Night Drive
TTITLE15=Ilona Knopfler - It's The Time Of The Season
TTITLE16=Kem - Love Calls
EXTD=
EXTT0=
EXTT1=
EXTT2=
EXTT3=
EXTT4=
EXTT5=
EXTT6=
EXTT7=
EXTT8=
EXTT9=
EXTT10=
EXTT11=
EXTT12=
EXTT13=
EXTT14=
EXTT15=
EXTT16=
PLAYORDER=
